<svg width="18" height="18" viewBox="0 0 18 18" fill="none" xmlns="http://www.w3.org/2000/svg">
<path d="M8.99797 4.83268H9.00547M2.33464 7.33268V14.416M5.66797 7.33268V14.416M12.3346 7.33268V14.416M15.668 7.33268V14.416M0.667969 6.14102C0.667969 5.14352 1.06964 4.53268 1.9013 4.06935L5.3263 2.16352C7.12047 1.16602 8.01797 0.666016 9.0013 0.666016C9.98464 0.666016 10.8821 1.16602 12.6763 2.16352L16.1013 4.06935C16.9321 4.53268 17.3346 5.14352 17.3346 6.14102C17.3346 6.41102 17.3346 6.54685 17.3055 6.65768C17.1505 7.24102 16.6213 7.33352 16.1105 7.33352H1.89214C1.3813 7.33352 0.852969 7.24185 0.697135 6.65768C0.667969 6.54602 0.667969 6.41102 0.667969 6.14102ZM14.8346 14.416H3.16797C2.50493 14.416 1.86904 14.6794 1.4002 15.1482C0.931361 15.6171 0.667969 16.253 0.667969 16.916C0.667969 17.0265 0.711868 17.1325 0.790008 17.2106C0.868148 17.2888 0.974129 17.3327 1.08464 17.3327H16.918C17.0285 17.3327 17.1345 17.2888 17.2126 17.2106C17.2907 17.1325 17.3346 17.0265 17.3346 16.916C17.3346 16.253 17.0712 15.6171 16.6024 15.1482C16.1336 14.6794 15.4977 14.416 14.8346 14.416Z" stroke="#0F172A" stroke-width="1.25" stroke-linecap="round" stroke-linejoin="round"/>
</svg>
