<svg width="24" height="24" viewBox="0 0 24 24" fill="none" xmlns="http://www.w3.org/2000/svg">
<path d="M6 13L6 17L18 17L18 5C18 3.89543 17.1046 3 16 3L8 3C6.89543 3 6 3.89543 6 5L6 13ZM6 13C3.79086 13 2 14.7909 2 17C2 19.2091 3.79086 21 6 21L18 21C20.2091 21 22 19.2091 22 17C22 14.7909 20.2091 13 18 13" stroke="#191B23" stroke-width="1.5" stroke-linejoin="round"/>
<path d="M10 11.4142L11.2929 12.7071C11.6834 13.0976 12.3166 13.0976 12.7071 12.7071L14 11.4142M12 7.41421L12 12.4142" stroke="#191B23" stroke-width="1.5" stroke-linecap="round"/>
</svg>
