<svg width="16" height="21" viewBox="0 0 16 21" fill="none" xmlns="http://www.w3.org/2000/svg">
<path d="M10 1.625V5.625C10 5.89022 10.1054 6.14457 10.2929 6.33211C10.4804 6.51964 10.7348 6.625 11 6.625H15" stroke="#96A3BE" stroke-width="1.5" stroke-linecap="round" stroke-linejoin="round"/>
<path d="M13 19.625H3C2.46957 19.625 1.96086 19.4143 1.58579 19.0392C1.21071 18.6641 1 18.1554 1 17.625V3.625C1 3.09457 1.21071 2.58586 1.58579 2.21079C1.96086 1.83571 2.46957 1.625 3 1.625H10L15 6.625V17.625C15 18.1554 14.7893 18.6641 14.4142 19.0392C14.0391 19.4143 13.5304 19.625 13 19.625Z" stroke="#96A3BE" stroke-width="1.5" stroke-linecap="round" stroke-linejoin="round"/>
<path d="M8 9.625V15.625" stroke="#96A3BE" stroke-width="1.5" stroke-linecap="round" stroke-linejoin="round"/>
<path d="M5 12.625L8 15.625L11 12.625" stroke="#96A3BE" stroke-width="1.5" stroke-linecap="round" stroke-linejoin="round"/>
</svg>
