<svg width="40" height="40" viewBox="0 0 40 40" fill="none" xmlns="http://www.w3.org/2000/svg">
<path d="M34.9996 6.66664H29.833C29.0356 2.7893 25.6248 0.005 21.6663 0H18.3329C14.3744 0.005 10.9636 2.7893 10.1663 6.66664H4.99965C4.07918 6.66664 3.33301 7.41281 3.33301 8.33328C3.33301 9.25375 4.07918 10 4.99965 10H6.66629V31.6666C6.67184 36.2667 10.3996 39.9945 14.9996 40H24.9996C29.5997 39.9945 33.3275 36.2667 33.333 31.6666V10H34.9996C35.9201 10 36.6663 9.25383 36.6663 8.33336C36.6663 7.41289 35.9201 6.66664 34.9996 6.66664ZM18.333 28.3334C18.333 29.2538 17.5868 30 16.6664 30C15.7458 30 14.9996 29.2538 14.9996 28.3334V18.3334C14.9996 17.4129 15.7458 16.6667 16.6663 16.6667C17.5868 16.6667 18.3329 17.4129 18.3329 18.3334V28.3334H18.333ZM24.9996 28.3334C24.9996 29.2538 24.2535 30 23.333 30C22.4125 30 21.6664 29.2538 21.6664 28.3334V18.3334C21.6664 17.4129 22.4125 16.6667 23.333 16.6667C24.2535 16.6667 24.9996 17.4129 24.9996 18.3334V28.3334ZM13.618 6.66664C14.3269 4.67047 16.2147 3.33586 18.333 3.33328H21.6664C23.7847 3.33586 25.6725 4.67047 26.3814 6.66664H13.618Z" fill="#EF4444"/>
</svg>
