<svg width="24" height="25" viewBox="0 0 24 25" fill="none" xmlns="http://www.w3.org/2000/svg">
<path d="M10.33 17.218H4.0293" stroke="#96A3BE" stroke-width="1.5" stroke-linecap="round" stroke-linejoin="round"/>
<path d="M13.1406 7.52469H19.4413" stroke="#96A3BE" stroke-width="1.5" stroke-linecap="round" stroke-linejoin="round"/>
<path fill-rule="evenodd" clip-rule="evenodd" d="M8.72629 7.47125C8.72629 6.1756 7.66813 5.125 6.36314 5.125C5.05816 5.125 4 6.1756 4 7.47125C4 8.76691 5.05816 9.81751 6.36314 9.81751C7.66813 9.81751 8.72629 8.76691 8.72629 7.47125Z" stroke="#96A3BE" stroke-width="1.5" stroke-linecap="round" stroke-linejoin="round"/>
<path fill-rule="evenodd" clip-rule="evenodd" d="M19.9997 17.1783C19.9997 15.8826 18.9424 14.832 17.6374 14.832C16.3316 14.832 15.2734 15.8826 15.2734 17.1783C15.2734 18.4739 16.3316 19.5245 17.6374 19.5245C18.9424 19.5245 19.9997 18.4739 19.9997 17.1783Z" stroke="#96A3BE" stroke-width="1.5" stroke-linecap="round" stroke-linejoin="round"/>
</svg>
