<svg width="20" height="20" viewBox="0 0 20 20" fill="none" xmlns="http://www.w3.org/2000/svg">
<path d="M1.7789 10.9885C1.6313 10.6799 1.55469 10.3421 1.55469 9.99991C1.55469 9.65776 1.6313 9.31995 1.7789 9.01128C1.90724 8.74178 2.12724 8.48328 2.56724 7.96628C2.74324 7.76003 2.83124 7.65737 2.90457 7.54737C3.07329 7.29573 3.19043 7.01315 3.24924 6.71595C3.2749 6.58578 3.2859 6.45103 3.30699 6.18153C3.36107 5.50503 3.38765 5.16678 3.48757 4.88353C3.60168 4.56103 3.78654 4.26817 4.0286 4.02644C4.27065 3.7847 4.56375 3.60022 4.8864 3.48653C5.16874 3.38662 5.50699 3.35912 6.1844 3.30595C6.4539 3.28395 6.58774 3.27295 6.7179 3.24728C7.01542 3.1886 7.29833 3.07144 7.55024 2.90262C7.66024 2.82928 7.7629 2.7422 7.96824 2.5662C8.48524 2.1262 8.74374 1.9062 9.01324 1.77695C9.32191 1.62935 9.65971 1.55273 10.0019 1.55273C10.344 1.55273 10.6818 1.62935 10.9905 1.77695C11.2609 1.90528 11.5194 2.12528 12.0355 2.5662C12.2417 2.7422 12.3444 2.82928 12.4544 2.90262C12.7063 3.07144 12.9892 3.1886 13.2867 3.24728C13.416 3.27295 13.5507 3.28395 13.8202 3.30595C14.4977 3.35912 14.8359 3.38662 15.1182 3.48653C15.4407 3.60034 15.7336 3.78487 15.9755 4.0266C16.2174 4.26833 16.4021 4.56113 16.5162 4.88353M3.48757 15.1163C3.60158 15.4387 3.78631 15.7315 4.0282 15.9732C4.27008 16.2149 4.56301 16.3995 4.88549 16.5133C5.16782 16.6141 5.50607 16.6407 6.18349 16.6939C6.45299 16.7159 6.58682 16.7269 6.71699 16.7525C7.0145 16.8112 7.29741 16.9284 7.54932 17.0972C7.65932 17.1705 7.76199 17.2576 7.96732 17.4336C8.48432 17.8736 8.74282 18.0936 9.01232 18.2229C9.32099 18.3705 9.6588 18.4471 10.0009 18.4471C10.3431 18.4471 10.6809 18.3705 10.9896 18.2229C11.26 18.0945 11.5185 17.8745 12.0346 17.4336C12.1675 17.3134 12.3074 17.2011 12.4535 17.0972C12.7054 16.9284 12.9883 16.8112 13.2858 16.7525C13.4151 16.7269 13.5498 16.7159 13.8193 16.6939C14.4967 16.6407 14.835 16.6132 15.1173 16.5133C15.4398 16.3995 15.7327 16.2149 15.9746 15.9732C16.2165 15.7315 16.4012 15.4387 16.5152 15.1163C16.6152 14.8339 16.6417 14.4948 16.6958 13.8183C16.7169 13.5488 16.7279 13.414 16.7536 13.2839C16.8122 12.9869 16.9296 12.7036 17.0982 12.4525C17.1716 12.3425 17.2596 12.2398 17.4347 12.0335C17.8747 11.5165 18.0956 11.258 18.2248 10.9885C18.3724 10.6799 18.449 10.3421 18.449 9.99991C18.449 9.65776 18.3724 9.31995 18.2248 9.01128M7.2514 12.7504L12.7514 7.25037" stroke="white" stroke-width="1.375" stroke-linecap="round"/>
<path d="M13.2096 12.293C13.2096 12.5361 13.1131 12.7692 12.9411 12.9411C12.7692 13.1131 12.5361 13.2096 12.293 13.2096C12.0499 13.2096 11.8167 13.1131 11.6448 12.9411C11.4729 12.7692 11.3763 12.5361 11.3763 12.293C11.3763 12.0499 11.4729 11.8167 11.6448 11.6448C11.8167 11.4729 12.0499 11.3763 12.293 11.3763C12.5361 11.3763 12.7692 11.4729 12.9411 11.6448C13.1131 11.8167 13.2096 12.0499 13.2096 12.293ZM8.6263 7.70964C8.6263 7.95275 8.52972 8.18591 8.35782 8.35782C8.18591 8.52972 7.95275 8.6263 7.70964 8.6263C7.46652 8.6263 7.23336 8.52972 7.06145 8.35782C6.88955 8.18591 6.79297 7.95275 6.79297 7.70964C6.79297 7.46652 6.88955 7.23336 7.06145 7.06145C7.23336 6.88955 7.46652 6.79297 7.70964 6.79297C7.95275 6.79297 8.18591 6.88955 8.35782 7.06145C8.52972 7.23336 8.6263 7.46652 8.6263 7.70964Z" fill="white"/>
</svg>
