<svg width="20" height="20" viewBox="0 0 20 20" fill="none" xmlns="http://www.w3.org/2000/svg">
<path d="M9.9965 5.83268H10.004M3.33317 8.33268V15.416M6.6665 8.33268V15.416M13.3332 8.33268V15.416M16.6665 8.33268V15.416M1.6665 7.14102C1.6665 6.14352 2.06817 5.53268 2.89984 5.06935L6.32484 3.16352C8.119 2.16602 9.0165 1.66602 9.99984 1.66602C10.9832 1.66602 11.8807 2.16602 13.6748 3.16352L17.0998 5.06935C17.9307 5.53268 18.3332 6.14352 18.3332 7.14102C18.3332 7.41102 18.3332 7.54685 18.304 7.65768C18.149 8.24102 17.6198 8.33352 17.109 8.33352H2.89067C2.37984 8.33352 1.8515 8.24185 1.69567 7.65768C1.6665 7.54602 1.6665 7.41102 1.6665 7.14102ZM15.8332 15.416H4.1665C3.50346 15.416 2.86758 15.6794 2.39874 16.1482C1.9299 16.6171 1.6665 17.253 1.6665 17.916C1.6665 18.0265 1.7104 18.1325 1.78854 18.2106C1.86668 18.2888 1.97266 18.3327 2.08317 18.3327H17.9165C18.027 18.3327 18.133 18.2888 18.2111 18.2106C18.2893 18.1325 18.3332 18.0265 18.3332 17.916C18.3332 17.253 18.0698 16.6171 17.6009 16.1482C17.1321 15.6794 16.4962 15.416 15.8332 15.416Z" stroke="#0F172A" stroke-width="1.25" stroke-linecap="round" stroke-linejoin="round"/>
</svg>
