<svg width="11" height="11" viewBox="0 0 11 11" fill="none" xmlns="http://www.w3.org/2000/svg">
<path fill-rule="evenodd" clip-rule="evenodd" d="M1.67137 0.823624C1.57847 0.771744 1.4893 0.75 1.3992 0.75C1.24651 0.75 1.09837 0.812248 0.991308 0.927012L0.945969 0.980479L0.905135 1.04352C0.784039 1.26084 0.813159 1.54449 0.99421 1.73302L4.81153 5.70833L0.99421 9.68405L0.939845 9.751L0.900939 9.82005C0.786567 10.0535 0.824669 10.3166 0.99421 10.4931C1.21641 10.7245 1.582 10.7245 1.8042 10.4931L6.01033 6.11308L6.0647 6.04612L6.1036 5.97708C6.21798 5.74359 6.17987 5.48055 6.01033 5.304L1.8042 0.923946L1.74181 0.868314L1.67137 0.823624ZM6.25096 0.823624C6.15807 0.771744 6.0689 0.75 5.9788 0.75C5.8261 0.75 5.67796 0.812248 5.5709 0.927012L5.52557 0.980479L5.48473 1.04352C5.36364 1.26084 5.39276 1.54449 5.57381 1.73302L9.39113 5.70833L5.57381 9.68405L5.51944 9.751L5.48054 9.82005C5.36616 10.0535 5.40427 10.3166 5.57381 10.4931C5.79601 10.7245 6.1616 10.7245 6.3838 10.4931L10.5899 6.11308L10.6443 6.04612L10.6832 5.97708C10.7976 5.74359 10.7595 5.48055 10.5899 5.304L6.3838 0.923946L6.32141 0.868314L6.25096 0.823624Z" fill="#1F3650"/>
</svg>
