<svg width="20" height="20" viewBox="0 0 20 20" fill="none" xmlns="http://www.w3.org/2000/svg">
<path d="M10.8346 7.01084V11.7125C10.8346 11.9335 10.7468 12.1455 10.5906 12.3018C10.4343 12.458 10.2223 12.5458 10.0013 12.5458C9.78029 12.5458 9.56833 12.458 9.41205 12.3018C9.25577 12.1455 9.16797 11.9335 9.16797 11.7125V7.01084L8.2338 7.94584C8.07732 8.1022 7.86514 8.19001 7.64392 8.18993C7.42271 8.18985 7.21059 8.1019 7.05422 7.94542C6.89785 7.78894 6.81005 7.57676 6.81013 7.35554C6.81021 7.13433 6.89816 6.9222 7.05464 6.76584L9.41214 4.41C9.56841 4.25378 9.78033 4.16602 10.0013 4.16602C10.2223 4.16602 10.4342 4.25378 10.5905 4.41L12.948 6.76667C13.0254 6.84415 13.0868 6.93612 13.1287 7.03733C13.1706 7.13854 13.1921 7.24701 13.1921 7.35655C13.192 7.46608 13.1704 7.57454 13.1285 7.67572C13.0865 7.7769 13.025 7.86883 12.9476 7.94625C12.8701 8.02368 12.7781 8.08509 12.6769 8.12697C12.5757 8.16885 12.4672 8.19038 12.3577 8.19035C12.2481 8.19031 12.1397 8.16869 12.0385 8.12674C11.9373 8.08479 11.8454 8.02332 11.768 7.94584L10.8346 7.01084ZM5.0013 14.1658H15.0013C15.2223 14.1658 15.4343 14.2536 15.5906 14.4099C15.7468 14.5662 15.8346 14.7782 15.8346 14.9992C15.8346 15.2202 15.7468 15.4321 15.5906 15.5884C15.4343 15.7447 15.2223 15.8325 15.0013 15.8325H5.0013C4.78029 15.8325 4.56833 15.7447 4.41205 15.5884C4.25577 15.4321 4.16797 15.2202 4.16797 14.9992C4.16797 14.7782 4.25577 14.5662 4.41205 14.4099C4.56833 14.2536 4.78029 14.1658 5.0013 14.1658Z" fill="#0F172A"/>
</svg>
