<svg width="20" height="18" viewBox="0 0 20 18" fill="none" xmlns="http://www.w3.org/2000/svg">
<path fill-rule="evenodd" clip-rule="evenodd" d="M13.4499 1.73292C13.3761 1.6477 13.2837 1.58066 13.1798 1.53704C13.0759 1.49342 12.9633 1.4744 12.8509 1.48145C12.7384 1.48851 12.6291 1.52145 12.5315 1.57771C12.4338 1.63397 12.3505 1.71203 12.288 1.8058L11.9704 2.28292L11.2292 3.76517C10.9872 4.24868 10.6155 4.65534 10.1555 4.93968C9.69564 5.22403 9.16571 5.37485 8.625 5.3753H7.25C7.06766 5.3753 6.8928 5.30286 6.76386 5.17393C6.63493 5.045 6.5625 4.87013 6.5625 4.6878C6.5625 4.50546 6.63493 4.33059 6.76386 4.20166C6.8928 4.07273 7.06766 4.0003 7.25 4.0003H8.625C9.20662 4.0003 9.73875 3.67304 10 3.15192L10.7604 1.63117L10.8016 1.5583L11.1454 1.04542C11.3252 0.775618 11.565 0.550985 11.8459 0.389018C12.1268 0.227051 12.4413 0.132125 12.7649 0.111633C13.0886 0.0911406 13.4125 0.145636 13.7116 0.270875C14.0108 0.396113 14.2769 0.588712 14.4894 0.83367C14.9706 1.39055 15.214 2.11517 15.1659 2.84942L15.1549 3.01579C15.1044 3.75891 14.9598 4.49261 14.7245 5.1993L14.6654 5.3753H17.1033C17.5441 5.37495 17.9774 5.49012 18.3598 5.70934C18.7423 5.92855 19.0607 6.24416 19.2833 6.62471C19.5058 7.00527 19.6248 7.4375 19.6283 7.87834C19.6318 8.31918 19.5197 8.75324 19.3032 9.13729L19.141 9.42605C19.4064 10.3473 19.1575 11.3524 18.4659 12.044L18.3353 12.1747C18.6735 13.5359 17.9915 14.937 16.7389 15.5214L16.5876 15.9752C16.415 16.4918 16.0844 16.9412 15.6425 17.2597C15.2006 17.5782 14.6697 17.7498 14.125 17.7503H12.8586C11.7763 17.749 10.7089 17.4973 9.74012 17.0147C8.73109 16.5107 7.81031 15.8467 7.0135 15.0484L6.76325 14.7995C6.63416 14.6706 6.56156 14.4957 6.56143 14.3133C6.5613 14.1308 6.63365 13.9558 6.76256 13.8267C6.89147 13.6976 7.06639 13.625 7.24883 13.6249C7.43126 13.6248 7.60628 13.6971 7.73538 13.826L7.98562 14.0763C8.67796 14.7697 9.47802 15.3464 10.3548 15.784C11.1322 16.1713 11.9887 16.3736 12.8573 16.3753H14.125C14.381 16.3748 14.6305 16.294 14.8381 16.1442C15.0458 15.9945 15.2013 15.7834 15.2828 15.5407L15.5289 14.8037C15.5646 14.696 15.625 14.5982 15.7052 14.518C15.7854 14.4378 15.8832 14.3774 15.9909 14.3417C16.7788 14.079 17.2174 13.2389 16.9823 12.4414L16.9107 12.1967C16.874 12.0697 16.8718 11.9352 16.9045 11.8071C16.9371 11.6789 17.0034 11.5619 17.0964 11.4679L17.4937 11.0719C17.678 10.8887 17.8021 10.6538 17.8495 10.3983C17.8969 10.1429 17.8654 9.87901 17.7591 9.64192C17.7156 9.54408 17.6956 9.43745 17.7006 9.3305C17.7056 9.22356 17.7356 9.11926 17.788 9.02592L18.1042 8.46217C18.2023 8.28735 18.253 8.08993 18.2512 7.8895C18.2494 7.68907 18.1952 7.49259 18.094 7.31955C17.9928 7.14652 17.8482 7.00295 17.6744 6.9031C17.5006 6.80324 17.3037 6.75056 17.1033 6.7503H14.4083C14.2198 6.75043 14.0341 6.70574 13.8664 6.61994C13.6986 6.53413 13.5537 6.40966 13.4436 6.25681C13.3334 6.10395 13.2612 5.92709 13.2329 5.74082C13.2046 5.55455 13.221 5.36423 13.2807 5.18554L13.421 4.76342C13.6188 4.16791 13.7403 3.54974 13.7826 2.92367L13.7936 2.7573C13.8189 2.38383 13.6953 2.01553 13.4499 1.73292ZM4.5 4.88992C4.5 4.81699 4.47103 4.74704 4.41945 4.69547C4.36788 4.64389 4.29793 4.61492 4.225 4.61492H2.025C1.95207 4.61492 1.88212 4.64389 1.83055 4.69547C1.77897 4.74704 1.75 4.81699 1.75 4.88992V14.1107C1.75 14.2619 1.87375 14.3857 2.025 14.3857H4.225C4.29793 14.3857 4.36788 14.3567 4.41945 14.3051C4.47103 14.2536 4.5 14.1836 4.5 14.1107V4.88992ZM1.75 3.3128C0.991 3.3128 0.375 3.8958 0.375 4.61492V14.3857C0.375 15.1048 0.991 15.6878 1.75 15.6878H4.5C5.259 15.6878 5.875 15.1048 5.875 14.3857V4.61492C5.875 3.8958 5.259 3.3128 4.5 3.3128H1.75Z" fill="white"/>
</svg>
