<svg width="23" height="26" viewBox="0 0 23 26" fill="none" xmlns="http://www.w3.org/2000/svg">
<path d="M14.2324 1.44141V5.93641C14.2324 6.54516 14.4749 7.13016 14.9074 7.56141C15.341 7.99312 15.928 8.23539 16.5399 8.23516H21.6962" stroke="#85A1C2" stroke-width="2" stroke-linecap="round" stroke-linejoin="round"/>
<path d="M21.8125 8.71028V19.4203C21.7877 20.1208 21.6245 20.8095 21.3323 21.4467C21.0401 22.0838 20.6247 22.6569 20.11 23.1328C19.5949 23.6109 18.9906 23.9828 18.3318 24.2273C17.6729 24.4718 16.9723 24.5841 16.27 24.5578H6.7825C6.07592 24.5901 5.36992 24.4826 4.70497 24.2415C4.04002 24.0004 3.42919 23.6304 2.9075 23.1528C2.38784 22.6756 1.96818 22.0999 1.67291 21.4591C1.37764 20.8184 1.21264 20.1253 1.1875 19.4203V6.57778C1.21232 5.87725 1.37553 5.18855 1.66772 4.55138C1.95992 3.91421 2.37533 3.34117 2.89 2.86528C3.4051 2.38718 4.00935 2.01526 4.66823 1.77075C5.32711 1.52624 6.02771 1.41395 6.73 1.44028H13.8725C14.9628 1.43643 16.0153 1.83986 16.8238 2.57153L20.5237 5.97403C20.9186 6.31413 21.2374 6.73353 21.4594 7.20496C21.6814 7.67639 21.8018 8.18929 21.8125 8.71028Z" stroke="#85A1C2" stroke-width="2" stroke-linecap="round" stroke-linejoin="round"/>
<path d="M11.5 11.124V19.5915" stroke="#85A1C2" stroke-width="2" stroke-miterlimit="10" stroke-linecap="round"/>
<path d="M15.3822 14.6875L12.0509 11.3562C11.9789 11.2833 11.893 11.2254 11.7984 11.1859C11.7038 11.1463 11.6022 11.126 11.4997 11.126C11.3971 11.126 11.2956 11.1463 11.201 11.1859C11.1064 11.2254 11.0205 11.2833 10.9484 11.3562L7.61719 14.6887" stroke="#85A1C2" stroke-width="2" stroke-linecap="round" stroke-linejoin="round"/>
</svg>
