<svg width="17" height="19" viewBox="0 0 17 19" fill="none" xmlns="http://www.w3.org/2000/svg">
<path d="M12.168 1.25V4.91667M4.83464 1.25V4.91667M1.16797 8.58333H15.8346M7.58464 12.25H8.5013V15M1.16797 4.91667C1.16797 4.43044 1.36112 3.96412 1.70494 3.6203C2.04876 3.27649 2.51507 3.08333 3.0013 3.08333H14.0013C14.4875 3.08333 14.9538 3.27649 15.2977 3.6203C15.6415 3.96412 15.8346 4.43044 15.8346 4.91667V15.9167C15.8346 16.4029 15.6415 16.8692 15.2977 17.213C14.9538 17.5568 14.4875 17.75 14.0013 17.75H3.0013C2.51507 17.75 2.04876 17.5568 1.70494 17.213C1.36112 16.8692 1.16797 16.4029 1.16797 15.9167V4.91667Z" stroke="white" stroke-width="1.83333" stroke-linecap="round" stroke-linejoin="round"/>
</svg>
