<svg width="20" height="20" viewBox="0 0 20 20" fill="none" xmlns="http://www.w3.org/2000/svg">
<path d="M18.6245 9.61565L10.3745 1.36565C10.0445 1.03565 9.5862 0.833984 9.08203 0.833984H2.66536C1.65703 0.833984 0.832031 1.65898 0.832031 2.66732V9.08398C0.832031 9.58815 1.0337 10.0465 1.37286 10.3857L9.62286 18.6357C9.95286 18.9657 10.4112 19.1673 10.9154 19.1673C11.4195 19.1673 11.8779 18.9657 12.2079 18.6265L18.6245 12.2098C18.9637 11.8798 19.1654 11.4215 19.1654 10.9173C19.1654 10.4132 18.9545 9.94565 18.6245 9.61565ZM10.9154 17.3432L2.66536 9.08398V2.66732H9.08203V2.65815L17.332 10.9082L10.9154 17.3432Z" fill="white"/>
</svg>
