<svg width="22" height="22" viewBox="0 0 22 22" fill="none" xmlns="http://www.w3.org/2000/svg">
<path fill-rule="evenodd" clip-rule="evenodd" d="M11 0.25C10.395 0.25 9.838 0.4 9.229 0.652C8.64 0.896 7.956 1.255 7.105 1.702L5.037 2.787C3.992 3.335 3.157 3.774 2.51 4.205C1.842 4.652 1.326 5.122 0.951 5.759C0.577 6.394 0.409 7.082 0.328 7.901C0.25 8.696 0.25 9.673 0.25 10.903V11.097C0.25 12.327 0.25 13.304 0.328 14.099C0.409 14.919 0.578 15.606 0.951 16.241C1.326 16.878 1.841 17.348 2.511 17.795C3.156 18.226 3.992 18.665 5.037 19.213L7.105 20.298C7.956 20.745 8.64 21.104 9.229 21.348C9.839 21.6 10.395 21.75 11 21.75C11.605 21.75 12.162 21.6 12.771 21.348C13.36 21.104 14.044 20.745 14.895 20.298L16.963 19.214C18.008 18.665 18.843 18.226 19.489 17.795C20.159 17.348 20.674 16.878 21.049 16.241C21.423 15.606 21.591 14.918 21.672 14.099C21.75 13.304 21.75 12.327 21.75 11.098V10.902C21.75 9.673 21.75 8.696 21.672 7.901C21.591 7.081 21.422 6.394 21.049 5.759C20.674 5.122 20.159 4.652 19.489 4.205C18.844 3.774 18.008 3.335 16.963 2.787L14.895 1.702C14.044 1.255 13.36 0.896 12.771 0.652C12.161 0.4 11.605 0.25 11 0.25ZM7.77 3.046C8.66 2.579 9.284 2.253 9.802 2.039C10.306 1.83 10.661 1.75 11 1.75C11.34 1.75 11.694 1.83 12.198 2.039C12.716 2.253 13.339 2.579 14.229 3.046L16.229 4.096C17.319 4.667 18.084 5.07 18.657 5.452C18.939 5.641 19.16 5.816 19.34 5.992L16.009 7.657L7.509 3.183L7.77 3.046ZM5.945 4.004L5.771 4.096C4.681 4.667 3.916 5.07 3.344 5.452C3.09993 5.61022 2.87126 5.79102 2.661 5.992L11 10.162L14.357 8.482L6.151 4.164C6.0735 4.12313 6.00378 4.06897 5.945 4.004ZM1.938 7.307C1.888 7.521 1.849 7.764 1.821 8.047C1.751 8.761 1.75 9.664 1.75 10.941V11.058C1.75 12.336 1.75 13.239 1.821 13.952C1.89 14.649 2.021 15.1 2.244 15.48C2.466 15.857 2.787 16.176 3.344 16.548C3.916 16.93 4.681 17.333 5.771 17.904L7.771 18.954C8.661 19.421 9.284 19.747 9.802 19.961C9.966 20.029 10.113 20.083 10.25 20.126V11.463L1.938 7.307ZM11.75 20.125C11.887 20.083 12.034 20.029 12.198 19.961C12.716 19.747 13.339 19.421 14.229 18.954L16.229 17.904C17.319 17.332 18.084 16.93 18.657 16.548C19.213 16.176 19.534 15.857 19.757 15.48C19.98 15.1 20.11 14.65 20.179 13.952C20.249 13.239 20.25 12.336 20.25 11.059V10.942C20.25 9.664 20.25 8.761 20.179 8.048C20.1565 7.79901 20.1174 7.55179 20.062 7.308L16.75 8.963V12C16.75 12.1989 16.671 12.3897 16.5303 12.5303C16.3897 12.671 16.1989 12.75 16 12.75C15.8011 12.75 15.6103 12.671 15.4697 12.5303C15.329 12.3897 15.25 12.1989 15.25 12V9.714L11.75 11.464V20.125Z" fill="white"/>
</svg>
