<svg width="18" height="17" viewBox="0 0 18 17" fill="none" xmlns="http://www.w3.org/2000/svg">
<path d="M5.86844 6.55266L9.99344 3.80266C10.097 3.73356 10.2174 3.69388 10.3417 3.68786C10.4661 3.68183 10.5897 3.70969 10.6995 3.76845C10.8092 3.82721 10.901 3.91467 10.9649 4.0215C11.0289 4.12832 11.0626 4.2505 11.0625 4.375V9.875C11.0626 9.9995 11.0289 10.1217 10.9649 10.2285C10.901 10.3353 10.8092 10.4228 10.6995 10.4816C10.5897 10.5403 10.4661 10.5682 10.3417 10.5621C10.2174 10.5561 10.097 10.5164 9.99344 10.4473L5.86844 7.69734C5.77413 7.63459 5.6968 7.5495 5.64331 7.44965C5.58982 7.3498 5.56183 7.23828 5.56183 7.125C5.56183 7.01172 5.58982 6.9002 5.64331 6.80035C5.6968 6.7005 5.77413 6.61541 5.86844 6.55266ZM9.6875 8.59023V5.66406L7.48922 7.125L9.6875 8.59023ZM1.4375 0.9375H16.5625C16.9272 0.9375 17.2769 1.08237 17.5348 1.34023C17.7926 1.59809 17.9375 1.94783 17.9375 2.3125V11.9375C17.9375 12.3022 17.7926 12.6519 17.5348 12.9098C17.2769 13.1676 16.9272 13.3125 16.5625 13.3125H1.4375C1.07283 13.3125 0.723091 13.1676 0.465229 12.9098C0.207365 12.6519 0.0625 12.3022 0.0625 11.9375V2.3125C0.0625 1.94783 0.207365 1.59809 0.465229 1.34023C0.723091 1.08237 1.07283 0.9375 1.4375 0.9375ZM1.4375 11.9375H16.5625V2.3125H1.4375V11.9375ZM0.0625 15.375C0.0625 15.5573 0.134932 15.7322 0.263863 15.8611C0.392796 15.9901 0.567663 16.0625 0.75 16.0625H17.25C17.4323 16.0625 17.6072 15.9901 17.7361 15.8611C17.8651 15.7322 17.9375 15.5573 17.9375 15.375C17.9375 15.1927 17.8651 15.0178 17.7361 14.8889C17.6072 14.7599 17.4323 14.6875 17.25 14.6875H0.75C0.567663 14.6875 0.392796 14.7599 0.263863 14.8889C0.134932 15.0178 0.0625 15.1927 0.0625 15.375Z" fill="white"/>
</svg>
